<svg width="57" height="49" viewBox="0 0 57 49" fill="none" xmlns="http://www.w3.org/2000/svg">
	<path d="M45.6051 49C51.5821 49 56.4304 44.0143 56.4304 37.8629C56.4304 31.7152 51.5821 26.7258 45.6051 26.7258C34.7836 26.7258 41.9967 5.19769 56.4304 5.19769V0.000366211C30.6703 -0.00334549 20.5763 49 45.6051 49ZM14.4212 49C20.3944 49 25.2428 44.0143 25.2428 37.8629C25.2428 31.7152 20.3944 26.7258 14.4212 26.7258C3.59591 26.7258 10.809 5.19769 25.2428 5.19769V0.000366211C-0.513695 -0.00334549 -10.6076 49 14.4212 49Z" fill="url(#paint0_linear_1_1482)" />
	<defs>
		<linearGradient id="paint0_linear_1_1482" x1="28.2152" y1="49" x2="28.2152" y2="0.000366211" gradientUnits="userSpaceOnUse">
			<stop stop-color="#DD9EE1" />
			<stop offset="1" />
		</linearGradient>
	</defs>
</svg>
